<svg xmlns="http://www.w3.org/2000/svg" version="1.1" xmlns:xlink="http://www.w3.org/1999/xlink" xmlns:svgjs="http://svgjs.dev/svgjs" width="2000" height="1250" viewBox="0 0 2000 1250"><g transform="matrix(1,0,0,1,0,0)"><svg viewBox="0 0 512 320" data-background-color="#ffffff" preserveAspectRatio="xMidYMid meet" height="1250" width="2000" xmlns="http://www.w3.org/2000/svg" xmlns:xlink="http://www.w3.org/1999/xlink"><g id="tight-bounds" transform="matrix(1,0,0,1,0,0)"><svg viewBox="0 0 512 320" height="320" width="512"><g><svg></svg></g><g><svg viewBox="0 0 512 320" height="320" width="512"><g><path xmlns="http://www.w3.org/2000/svg" d="M96 160c0-88.366 71.634-160 160-160 88.366 0 160 71.634 160 160 0 88.366-71.634 160-160 160-88.366 0-160-71.634-160-160z" fill="#113f67" fill-rule="nonzero" stroke="none" stroke-width="1" stroke-linecap="butt" stroke-linejoin="miter" stroke-miterlimit="10" stroke-dasharray="" stroke-dashoffset="0" font-family="none" font-weight="none" font-size="none" text-anchor="none" style="mix-blend-mode: normal" data-fill-palette-color="tertiary"></path></g><g transform="matrix(1,0,0,1,153.6,119.3670708648529)"><svg viewBox="0 0 204.8 81.26585827029419" height="81.26585827029419" width="204.8"><g><svg viewBox="0 0 204.8 81.26585827029419" height="81.26585827029419" width="204.8"><g><svg viewBox="0 0 204.8 81.26585827029419" height="81.26585827029419" width="204.8"><g><svg viewBox="0 0 204.8 81.26585827029419" height="81.26585827029419" width="204.8"><g id="textblocktransform"><svg viewBox="0 0 204.8 81.26585827029419" height="81.26585827029419" width="204.8" id="textblock"><g><svg viewBox="0 0 204.8 46.179807972068666" height="46.179807972068666" width="204.8"><g transform="matrix(1,0,0,1,0,0)"><svg width="204.8" viewBox="1.2000000476837158 -37.349998474121094 167.80999755859375 37.84000015258789" height="46.179807972068666" data-palette-color="#ffffff"><path d="M1.2 0L13.43-37.35 19.12-37.35 32.18 0 27.76 0 24.05-10.96 9.01-10.96 5.49 0 1.2 0ZM10.13-14.45L22.88-14.45 16.28-34.06 15.53-31.27 10.13-14.45ZM51.54-25.73L51.54-25.73Q47.56-25.73 42.84-22.92L42.84-22.92 42.84 0 38.79 0 38.79-29.05 42.36-29.05 42.75-26.05Q47.02-29.54 52.32-29.54L52.32-29.54Q55.34-29.54 57.09-28.67 58.84-27.81 59.62-25.83L59.62-25.83Q65.01-29.54 69.87-29.54L69.87-29.54Q74.46-29.54 76.24-27.44L76.24-27.44Q77.95-25.42 77.95-20.24L77.95-20.24 77.95 0 73.85 0 73.85-19.48Q73.85-23 73.17-24.01 72.48-25.02 71.54-25.38 70.6-25.73 69.35-25.73 68.09-25.73 66.98-25.5 65.87-25.27 64.72-24.88L64.72-24.88Q62.4-24.07 60.28-22.83L60.28-22.83Q60.4-21.36 60.4-20.24L60.4-20.24 60.4 0 56.3 0 56.3-19.48Q56.3-23 55.61-24.01 54.93-25.02 53.99-25.38 53.05-25.73 51.54-25.73ZM110.27-5.03L111.47-1.54Q106.42 0.49 100.31 0.49L100.31 0.49Q96.77 0.49 94.31-0.24L94.31-0.24Q90.38-1.37 89.08-4.88L89.08-4.88Q87.89-8.18 87.89-14.65L87.89-14.65 87.89-15.89Q87.89-23.63 91.11-26.76L91.11-26.76Q94.01-29.54 100.8-29.54L100.8-29.54Q107.42-29.54 109.83-26.27L109.83-26.27Q111.01-24.68 111.38-22.42 111.76-20.17 111.76-18.12L111.76-18.12Q111.76-14.92 111.62-13.16L111.62-13.16Q108.17-13.01 105.44-13.01L105.44-13.01Q105.44-13.01 101.51-13.01L101.51-13.01Q95.36-13.01 92.04-13.55L92.04-13.55Q92.04-7.93 93.45-5.71L93.45-5.71Q95.19-3 100.36-3 105.54-3 110.27-5.03L110.27-5.03ZM92.04-16.41L107.64-16.41 107.64-18.75Q107.64-22.58 106.15-24.22L106.15-24.22Q104.49-26.05 100.41-26.05L100.41-26.05Q95.53-26.05 93.75-23.93L93.75-23.93Q92.04-21.9 92.04-16.41L92.04-16.41ZM143.57-5.03L144.77-1.54Q139.71 0.49 133.61 0.49L133.61 0.49Q130.07 0.49 127.6-0.24L127.6-0.24Q123.67-1.37 122.38-4.88L122.38-4.88Q121.18-8.18 121.18-14.65L121.18-14.65 121.18-15.89Q121.18-23.63 124.41-26.76L124.41-26.76Q127.31-29.54 134.1-29.54L134.1-29.54Q140.72-29.54 143.13-26.27L143.13-26.27Q144.3-24.68 144.68-22.42 145.06-20.17 145.06-18.12L145.06-18.12Q145.06-14.92 144.91-13.16L144.91-13.16Q141.47-13.01 138.74-13.01L138.74-13.01Q138.74-13.01 134.81-13.01L134.81-13.01Q128.65-13.01 125.33-13.55L125.33-13.55Q125.33-7.93 126.75-5.71L126.75-5.71Q128.48-3 133.66-3 138.84-3 143.57-5.03L143.57-5.03ZM125.33-16.41L140.93-16.41 140.93-18.75Q140.93-22.58 139.45-24.22L139.45-24.22Q137.79-26.05 133.71-26.05L133.71-26.05Q128.83-26.05 127.04-23.93L127.04-23.93Q125.33-21.9 125.33-16.41L125.33-16.41ZM165.74-25.51L165.74-25.51Q162.61-25.51 159.37-22.39L159.37-22.39 159.37 0 155.31 0 155.31-29.05 158.88-29.05 159.27-25.2Q160.41-26.98 161.75-27.98 163.08-28.98 163.93-29.2L163.93-29.2Q165.15-29.54 166.25-29.54 167.35-29.54 169.01-29.1L169.01-29.1 168.64-25.22Q167.4-25.51 165.74-25.51Z" opacity="1" transform="matrix(1,0,0,1,0,0)" fill="#ffffff" class="undefined-text-0" data-fill-palette-color="quaternary" id="text-0"></path></svg></g></svg></g><g transform="matrix(1,0,0,1,0,52.91855027058482)"><svg viewBox="0 0 204.8 28.34730799970937" height="28.34730799970937" width="204.8"><g transform="matrix(1,0,0,1,0,0)"><svg width="204.8" viewBox="3 -36.54999923706055 335.9800109863281 46.5099983215332" height="28.34730799970937" data-palette-color="#ffffff"><path d="M37.99-35.01L37.99-10.01Q37.99-7.84 37.17-5.92 36.35-4 34.92-2.58 33.5-1.15 31.58-0.33 29.66 0.49 27.49 0.49L27.49 0.49Q25.54 0.49 23.74-0.2 21.95-0.88 20.51-2.2L20.51-2.2Q19.07-0.88 17.26-0.2 15.45 0.49 13.5 0.49L13.5 0.49Q11.33 0.49 9.41-0.33 7.5-1.15 6.07-2.58 4.64-4 3.82-5.92 3-7.84 3-10.01L3-10.01 3-35.01 10.01-35.01 10.01-10.01Q10.01-9.28 10.28-8.63 10.55-7.98 11.02-7.51 11.5-7.03 12.13-6.76 12.77-6.49 13.5-6.49L13.5-6.49Q14.23-6.49 14.87-6.76 15.5-7.03 15.98-7.51 16.46-7.98 16.72-8.63 16.99-9.28 16.99-10.01L16.99-10.01 16.99-35.01 24-35.01 24-10.01Q24-9.28 24.27-8.63 24.54-7.98 25.01-7.51 25.49-7.03 26.12-6.76 26.76-6.49 27.49-6.49L27.49-6.49Q28.22-6.49 28.86-6.76 29.49-7.03 29.97-7.51 30.44-7.98 30.73-8.63 31.01-9.28 31.01-10.01L31.01-10.01 31.01-35.01 37.99-35.01ZM66.09-21.46L53.59-6.4Q53.98-6.27 54.37-6.24 54.76-6.2 55.15-6.2L55.15-6.2Q56.13-6.2 57.03-6.47 57.93-6.74 58.73-7.24 59.52-7.74 60.14-8.46 60.76-9.18 61.15-10.06L61.15-10.06 66.04-5.15Q65.11-3.83 63.9-2.78 62.69-1.73 61.29-1 59.89-0.27 58.33 0.11 56.78 0.49 55.15 0.49L55.15 0.49Q52.39 0.49 49.96-0.54 47.53-1.56 45.71-3.39 43.89-5.22 42.84-7.75 41.79-10.28 41.79-13.31L41.79-13.31Q41.79-16.41 42.84-18.97 43.89-21.53 45.71-23.34 47.53-25.15 49.96-26.15 52.39-27.15 55.15-27.15L55.15-27.15Q56.78-27.15 58.35-26.76 59.91-26.37 61.31-25.63 62.72-24.9 63.94-23.84 65.16-22.78 66.09-21.46L66.09-21.46ZM49.24-9.84L57-20.14Q56.54-20.31 56.09-20.36 55.64-20.41 55.15-20.41L55.15-20.41Q53.78-20.41 52.57-19.91 51.36-19.41 50.47-18.48 49.58-17.55 49.07-16.25 48.56-14.94 48.56-13.31L48.56-13.31Q48.56-12.94 48.59-12.48 48.63-12.01 48.72-11.54 48.8-11.06 48.92-10.62 49.05-10.18 49.24-9.84L49.24-9.84ZM95.6-13.31L95.6-13.31Q95.6-10.23 94.55-7.69 93.5-5.15 91.69-3.33 89.89-1.51 87.46-0.51 85.03 0.49 82.25 0.49L82.25 0.49Q79.49 0.49 77.06-0.54 74.63-1.56 72.81-3.39 70.99-5.22 69.94-7.75 68.89-10.28 68.89-13.31L68.89-13.31 68.89-36.55 75.58-36.55 75.58-24.34Q76.12-25.02 76.89-25.56 77.66-26.1 78.55-26.44 79.44-26.78 80.39-26.97 81.34-27.15 82.25-27.15L82.25-27.15Q85.03-27.15 87.46-26.11 89.89-25.07 91.69-23.22 93.5-21.36 94.55-18.84 95.6-16.31 95.6-13.31ZM88.89-13.31L88.89-13.31Q88.89-14.82 88.36-16.13 87.84-17.43 86.93-18.38 86.03-19.34 84.82-19.87 83.61-20.41 82.25-20.41L82.25-20.41Q80.88-20.41 79.67-19.81 78.46-19.21 77.56-18.23 76.66-17.24 76.14-15.95 75.63-14.67 75.63-13.31L75.63-13.31Q75.63-11.79 76.14-10.5 76.66-9.2 77.56-8.25 78.46-7.3 79.67-6.75 80.88-6.2 82.25-6.2L82.25-6.2Q83.61-6.2 84.82-6.75 86.03-7.3 86.93-8.25 87.84-9.2 88.36-10.5 88.89-11.79 88.89-13.31ZM142.03-17.5L142.03-17.5Q142.03-15.09 141.41-12.85 140.79-10.62 139.64-8.68 138.49-6.74 136.9-5.14 135.32-3.54 133.36-2.39 131.41-1.25 129.18-0.62 126.94 0 124.53 0L124.53 0 113.98 0 113.98-35.01 124.53-35.01Q126.94-35.01 129.18-34.39 131.41-33.76 133.36-32.62 135.32-31.47 136.9-29.87 138.49-28.27 139.64-26.33 140.79-24.39 141.41-22.16 142.03-19.92 142.03-17.5ZM135.02-17.5L135.02-17.5Q135.02-19.68 134.21-21.58 133.39-23.49 131.96-24.91 130.53-26.34 128.62-27.17 126.7-28 124.53-28L124.53-28 121.03-28 121.03-7.01 124.53-7.01Q126.7-7.01 128.62-7.82 130.53-8.64 131.96-10.07 133.39-11.5 134.21-13.42 135.02-15.33 135.02-17.5ZM168.86-21.46L156.36-6.4Q156.75-6.27 157.14-6.24 157.53-6.2 157.92-6.2L157.92-6.2Q158.9-6.2 159.8-6.47 160.71-6.74 161.5-7.24 162.29-7.74 162.91-8.46 163.54-9.18 163.93-10.06L163.93-10.06 168.81-5.15Q167.88-3.83 166.67-2.78 165.47-1.73 164.06-1 162.66-0.27 161.11 0.11 159.56 0.49 157.92 0.49L157.92 0.49Q155.16 0.49 152.73-0.54 150.3-1.56 148.49-3.39 146.67-5.22 145.62-7.75 144.57-10.28 144.57-13.31L144.57-13.31Q144.57-16.41 145.62-18.97 146.67-21.53 148.49-23.34 150.3-25.15 152.73-26.15 155.16-27.15 157.92-27.15L157.92-27.15Q159.56-27.15 161.12-26.76 162.68-26.37 164.09-25.63 165.49-24.9 166.71-23.84 167.93-22.78 168.86-21.46L168.86-21.46ZM152.01-9.84L159.78-20.14Q159.31-20.31 158.86-20.36 158.41-20.41 157.92-20.41L157.92-20.41Q156.55-20.41 155.35-19.91 154.14-19.41 153.25-18.48 152.36-17.55 151.84-16.25 151.33-14.94 151.33-13.31L151.33-13.31Q151.33-12.94 151.37-12.48 151.4-12.01 151.49-11.54 151.57-11.06 151.7-10.62 151.82-10.18 152.01-9.84L152.01-9.84ZM185.97 0L179.28 0 169.32-26.15 176.91-26.15 182.63-9.84 188.32-26.15 195.93-26.15 185.97 0ZM220.61-21.46L208.11-6.4Q208.5-6.27 208.89-6.24 209.28-6.2 209.67-6.2L209.67-6.2Q210.65-6.2 211.55-6.47 212.46-6.74 213.25-7.24 214.05-7.74 214.67-8.46 215.29-9.18 215.68-10.06L215.68-10.06 220.56-5.15Q219.64-3.83 218.43-2.78 217.22-1.73 215.82-1 214.41-0.27 212.86 0.11 211.31 0.49 209.67 0.49L209.67 0.49Q206.92 0.49 204.49-0.54 202.06-1.56 200.24-3.39 198.42-5.22 197.37-7.75 196.32-10.28 196.32-13.31L196.32-13.31Q196.32-16.41 197.37-18.97 198.42-21.53 200.24-23.34 202.06-25.15 204.49-26.15 206.92-27.15 209.67-27.15L209.67-27.15Q211.31-27.15 212.87-26.76 214.44-26.37 215.84-25.63 217.24-24.9 218.46-23.84 219.68-22.78 220.61-21.46L220.61-21.46ZM203.77-9.84L211.53-20.14Q211.07-20.31 210.61-20.36 210.16-20.41 209.67-20.41L209.67-20.41Q208.31-20.41 207.1-19.91 205.89-19.41 205-18.48 204.11-17.55 203.6-16.25 203.08-14.94 203.08-13.31L203.08-13.31Q203.08-12.94 203.12-12.48 203.16-12.01 203.24-11.54 203.33-11.06 203.45-10.62 203.57-10.18 203.77-9.84L203.77-9.84ZM230.67-36.55L230.67 0 223.95 0 223.95-36.55 230.67-36.55ZM261.01-13.31L261.01-13.31Q261.01-10.38 259.96-7.85 258.91-5.32 257.11-3.48 255.3-1.64 252.87-0.57 250.44 0.49 247.66 0.49L247.66 0.49Q244.9 0.49 242.47-0.57 240.04-1.64 238.22-3.48 236.4-5.32 235.35-7.85 234.3-10.38 234.3-13.31L234.3-13.31Q234.3-16.28 235.35-18.82 236.4-21.36 238.22-23.21 240.04-25.05 242.47-26.1 244.9-27.15 247.66-27.15L247.66-27.15Q250.44-27.15 252.87-26.16 255.3-25.17 257.11-23.35 258.91-21.53 259.96-18.98 261.01-16.43 261.01-13.31ZM254.3-13.31L254.3-13.31Q254.3-14.92 253.77-16.22 253.25-17.53 252.35-18.47 251.44-19.41 250.23-19.91 249.03-20.41 247.66-20.41L247.66-20.41Q246.29-20.41 245.08-19.91 243.87-19.41 242.98-18.47 242.09-17.53 241.58-16.22 241.07-14.92 241.07-13.31L241.07-13.31Q241.07-11.79 241.58-10.5 242.09-9.2 242.98-8.25 243.87-7.3 245.08-6.75 246.29-6.2 247.66-6.2L247.66-6.2Q249.03-6.2 250.23-6.71 251.44-7.23 252.35-8.15 253.25-9.08 253.77-10.4 254.3-11.72 254.3-13.31ZM271.41-1.76L271.41 9.96 264.7 9.96 264.7-26.15 266.31-26.15 268.97-23Q269.87-23.85 270.95-24.61 272.02-25.37 273.18-25.92 274.34-26.46 275.59-26.78 276.83-27.1 278.1-27.1L278.1-27.1Q280.86-27.1 283.29-26.11 285.72-25.12 287.54-23.32 289.35-21.51 290.4-18.96 291.45-16.41 291.45-13.31L291.45-13.31Q291.45-10.08 290.4-7.51 289.35-4.93 287.54-3.14 285.72-1.34 283.29-0.39 280.86 0.56 278.1 0.56L278.1 0.56Q277.22 0.56 276.35 0.37 275.49 0.17 274.65-0.16 273.8-0.49 272.99-0.9 272.17-1.32 271.41-1.76L271.41-1.76ZM284.77-13.31L284.77-13.31Q284.77-14.97 284.24-16.28 283.72-17.6 282.81-18.52 281.91-19.43 280.69-19.92 279.47-20.41 278.1-20.41L278.1-20.41Q276.73-20.41 275.52-19.92 274.32-19.43 273.41-18.52 272.51-17.6 271.98-16.28 271.46-14.97 271.46-13.31L271.46-13.31Q271.46-11.72 271.98-10.4 272.51-9.08 273.41-8.15 274.32-7.23 275.52-6.71 276.73-6.2 278.1-6.2L278.1-6.2Q279.47-6.2 280.69-6.71 281.91-7.23 282.81-8.15 283.72-9.08 284.24-10.4 284.77-11.72 284.77-13.31ZM318.04-21.46L305.54-6.4Q305.93-6.27 306.32-6.24 306.71-6.2 307.1-6.2L307.1-6.2Q308.08-6.2 308.98-6.47 309.88-6.74 310.68-7.24 311.47-7.74 312.09-8.46 312.72-9.18 313.11-10.06L313.11-10.06 317.99-5.15Q317.06-3.83 315.85-2.78 314.65-1.73 313.24-1 311.84-0.27 310.29 0.11 308.74 0.49 307.1 0.49L307.1 0.49Q304.34 0.49 301.91-0.54 299.48-1.56 297.67-3.39 295.85-5.22 294.8-7.75 293.75-10.28 293.75-13.31L293.75-13.31Q293.75-16.41 294.8-18.97 295.85-21.53 297.67-23.34 299.48-25.15 301.91-26.15 304.34-27.15 307.1-27.15L307.1-27.15Q308.74-27.15 310.3-26.76 311.86-26.37 313.27-25.63 314.67-24.9 315.89-23.84 317.11-22.78 318.04-21.46L318.04-21.46ZM301.19-9.84L308.96-20.14Q308.49-20.31 308.04-20.36 307.59-20.41 307.1-20.41L307.1-20.41Q305.73-20.41 304.53-19.91 303.32-19.41 302.43-18.48 301.54-17.55 301.02-16.25 300.51-14.94 300.51-13.31L300.51-13.31Q300.51-12.94 300.55-12.48 300.58-12.01 300.67-11.54 300.75-11.06 300.88-10.62 301-10.18 301.19-9.84L301.19-9.84ZM328.05-14.4L328.05 0 321.38 0 321.38-26.15 322.99-26.15 325.19-23.05Q326.8-24.51 328.85-25.31 330.9-26.1 333.1-26.1L333.1-26.1 338.98-26.1 338.98-19.46 333.1-19.46Q332.05-19.46 331.12-19.07 330.19-18.68 329.51-17.99 328.83-17.31 328.44-16.38 328.05-15.45 328.05-14.4L328.05-14.4Z" opacity="1" transform="matrix(1,0,0,1,0,0)" fill="#ffffff" class="undefined-text-1" data-fill-palette-color="quaternary" id="text-1"></path></svg></g></svg></g></svg></g></svg></g><g></g></svg></g></svg></g></svg></g></svg></g><defs></defs></svg><rect width="512" height="320" fill="none" stroke="none" visibility="hidden"></rect></g></svg></g></svg>